<?xml version="1.0" standalone="no"?>
<!DOCTYPE svg PUBLIC "-//W3C//DTD SVG 20010904//EN"
 "http://www.w3.org/TR/2001/REC-SVG-20010904/DTD/svg10.dtd">
<svg version="1.0" xmlns="http://www.w3.org/2000/svg"
 width="500.000000pt" height="256.000000pt" viewBox="0 0 500.000000 256.000000"
 preserveAspectRatio="xMidYMid meet">

<g transform="translate(0.000000,256.000000) scale(0.100000,-0.100000)"
fill="#000000" stroke="none">
<path d="M0 2550 c0 -5 7 -7 15 -4 19 8 19 14 0 14 -8 0 -15 -4 -15 -10z"/>
<path d="M45 2548 c-11 -7 -26 -17 -32 -24 -10 -10 -13 -277 -13 -1268 l0
-1256 2500 0 2500 0 0 1280 0 1280 -2467 0 c-1847 -1 -2473 -4 -2488 -12z
m4903 -1265 l-3 -1218 -2442 -3 -2443 -2 0 1220 0 1220 2445 0 2445 0 -2
-1217z"/>
<path d="M240 1275 l0 -1035 1100 0 1100 0 0 1035 0 1035 -1100 0 -1100 0 0
-1035z m1515 358 c83 -44 125 -114 125 -208 0 -94 -42 -164 -125 -208 -33 -17
-62 -22 -162 -25 l-123 -4 0 -114 0 -114 -45 0 -45 0 0 351 0 351 168 -4 c148
-3 172 -6 207 -25z m435 -323 l0 -350 -50 0 -50 0 0 350 0 350 50 0 50 0 0
-350z"/>
<path d="M1472 1423 l3 -148 101 0 c115 1 154 13 187 59 28 40 30 129 4 170
-35 53 -71 66 -190 66 l-108 0 3 -147z"/>
<path d="M4282 1645 c-212 -46 -329 -255 -262 -466 58 -183 250 -283 455 -235
176 42 278 170 278 351 0 186 -113 320 -297 354 -73 14 -94 13 -174 -4z m187
-196 c47 -29 68 -57 81 -110 33 -133 -74 -244 -211 -219 -55 10 -89 37 -116
90 -50 96 -8 217 87 253 38 14 126 6 159 -14z"/>
<path d="M2630 1634 c0 -4 47 -80 105 -170 l105 -163 -114 -173 -113 -173 105
-3 c58 -1 111 -1 117 1 6 3 37 48 70 101 33 53 62 96 65 96 3 0 32 -45 65
-100 l60 -100 112 0 c62 0 113 2 113 5 0 3 -50 82 -110 176 -95 146 -109 173
-99 190 6 11 43 71 83 132 39 62 82 129 95 150 l23 37 -110 0 -109 0 -59 -95
c-32 -52 -62 -95 -66 -95 -4 0 -33 43 -65 95 l-58 94 -107 1 c-60 0 -108 -3
-108 -6z"/>
<path d="M3430 1295 l0 -345 245 0 245 0 0 80 0 80 -145 0 -145 0 0 55 0 55
125 0 125 0 0 80 0 80 -125 0 -125 0 0 50 0 49 136 3 136 3 1 78 2 77 -237 0
-238 0 0 -345z"/>
</g>
</svg>
