<svg width="20" height="20" viewBox="0 0 20 20" fill="none" xmlns="http://www.w3.org/2000/svg">
<g id="user-circle Filled">
<path id="user-circle" d="M10 1.66666C5.39751 1.66666 1.66667 5.39749 1.66667 9.99999C1.66667 14.6025 5.39751 18.3333 10 18.3333C14.6025 18.3333 18.3333 14.6025 18.3333 9.99999C18.3333 5.39749 14.6025 1.66666 10 1.66666ZM10.0067 5.83332C11.3876 5.83332 12.5067 6.95249 12.5067 8.33332C12.5067 9.71416 11.3876 10.8333 10.0067 10.8333C8.62589 10.8333 7.50672 9.71416 7.50672 8.33332C7.50672 6.95249 8.62589 5.83332 10.0067 5.83332ZM10 17.0833C8.15834 17.0833 6.47501 16.375 5.21668 15.2167C5.58335 14.0667 6.53337 12.9749 8.57504 12.9749H11.425C13.4583 12.9749 14.4083 14.075 14.7833 15.2167C13.525 16.375 11.8417 17.0833 10 17.0833Z" fill="#1D1D1D"/>
</g>
</svg>
